SplineFontDB: 3.2
FontName: Lithium_PX_mono
FullName: Lithium PX mono
FamilyName: Lithium PX mono
Weight: Book
Copyright: Copyright (c) 2024, Merucu
Version: 001.000
ItalicAngle: 0
UnderlinePosition: 0
UnderlineWidth: 0
Ascent: 13
Descent: 3
InvalidEm: 0
sfntRevision: 0x00010000
LayerCount: 2
Layer: 0 1 "Back" 1
Layer: 1 1 "Fore" 0
XUID: [1021 395 -1322837706 30524]
StyleMap: 0x0000
FSType: 0
OS2Version: 4
OS2_WeightWidthSlopeOnly: 0
OS2_UseTypoMetrics: 1
CreationTime: 1726759410
ModificationTime: 1727088761
PfmFamily: 17
TTFWeight: 400
TTFWidth: 5
LineGap: 1
VLineGap: 0
Panose: 2 0 5 9 0 0 0 0 0 0
OS2TypoAscent: 13
OS2TypoAOffset: 0
OS2TypoDescent: -3
OS2TypoDOffset: 0
OS2TypoLinegap: 1
OS2WinAscent: 13
OS2WinAOffset: 0
OS2WinDescent: 3
OS2WinDOffset: 0
HheadAscent: 13
HheadAOffset: 0
HheadDescent: -3
HheadDOffset: 0
OS2SubXSize: 10
OS2SubYSize: 11
OS2SubXOff: 0
OS2SubYOff: 2
OS2SupXSize: 10
OS2SupYSize: 11
OS2SupXOff: 0
OS2SupYOff: 7
OS2StrikeYSize: 0
OS2StrikeYPos: 4
OS2CapHeight: 12
OS2XHeight: 6
OS2Vendor: 'PfEd'
OS2CodePages: 00000001.00000000
OS2UnicodeRanges: 00000001.00000000.00000000.00000000
MarkAttachClasses: 1
DEI: 91125
ShortTable: cvt  2
  0
  10
EndShort
ShortTable: maxp 16
  1
  0
  98
  28
  7
  0
  0
  2
  0
  1
  1
  0
  64
  46
  0
  0
EndShort
LangName: 1033 "" "" "Regular" "" "" "Version 001.000"
GaspTable: 1 65535 2 0
Encoding: UnicodeBmp
UnicodeInterp: none
NameList: AGL For New Fonts
DisplaySize: -48
AntiAlias: 1
FitToEm: 0
WinInfo: 38 19 14
BeginPrivate: 0
EndPrivate
BeginChars: 65537 98

StartChar: .notdef
Encoding: 65536 -1 0
Width: 9
GlyphClass: 1
Flags: W
LayerCount: 2
Fore
SplineSet
0 0 m 1,0,-1
 0 10 l 1,1,-1
 1 10 l 1,2,-1
 1 0 l 1,3,-1
 0 0 l 1,0,-1
0 0 m 1,4,-1
 1 0 l 1,5,-1
 1 10 l 1,6,-1
 0 10 l 1,7,-1
 0 0 l 1,4,-1
EndSplineSet
Validated: 5
EndChar

StartChar: exclam
Encoding: 33 33 4
Width: 11
GlyphClass: 1
Flags: W
LayerCount: 2
Fore
SplineSet
4 4 m 1,0,-1
 4 12 l 1,1,-1
 7 12 l 1,2,-1
 7 4 l 1,3,-1
 4 4 l 1,0,-1
4 0 m 1,4,-1
 4 3 l 1,5,-1
 7 3 l 1,6,-1
 7 0 l 1,7,-1
 4 0 l 1,4,-1
EndSplineSet
Validated: 1
EndChar

StartChar: quotedbl
Encoding: 34 34 5
Width: 11
GlyphClass: 1
Flags: W
LayerCount: 2
Fore
SplineSet
1 8 m 1,0,-1
 1 12 l 1,1,-1
 4 12 l 1,2,-1
 4 8 l 1,3,-1
 1 8 l 1,0,-1
7 8 m 1,4,-1
 7 12 l 1,5,-1
 10 12 l 1,6,-1
 10 8 l 1,7,-1
 7 8 l 1,4,-1
EndSplineSet
Validated: 1
EndChar

StartChar: numbersign
Encoding: 35 35 6
Width: 11
GlyphClass: 1
Flags: W
LayerCount: 2
Fore
SplineSet
1 0 m 1,0,-1
 1 11 l 1,1,-1
 4 11 l 1,2,-1
 4 0 l 1,3,-1
 1 0 l 1,0,-1
7 1 m 1,4,-1
 7 12 l 1,5,-1
 10 12 l 1,6,-1
 10 1 l 1,7,-1
 7 1 l 1,4,-1
4 8 m 1,8,-1
 4 10 l 1,9,-1
 7 10 l 1,10,-1
 7 8 l 1,11,-1
 4 8 l 1,8,-1
4 2 m 1,12,-1
 4 4 l 1,13,-1
 7 4 l 1,14,-1
 7 2 l 1,15,-1
 4 2 l 1,12,-1
EndSplineSet
Validated: 5
EndChar

StartChar: dollar
Encoding: 36 36 7
Width: 11
GlyphClass: 1
Flags: W
LayerCount: 2
Fore
SplineSet
1 6 m 1,0,-1
 1 11 l 1,1,-1
 4 11 l 1,2,-1
 4 6 l 1,3,-1
 1 6 l 1,0,-1
7 8 m 1,4,-1
 7 11 l 1,5,-1
 10 11 l 1,6,-1
 10 8 l 1,7,-1
 7 8 l 1,4,-1
4 0 m 1,8,-1
 4 12 l 1,9,-1
 7 12 l 1,10,-1
 7 0 l 1,11,-1
 4 0 l 1,8,-1
7 1 m 1,12,-1
 7 6 l 1,13,-1
 10 6 l 1,14,-1
 10 1 l 1,15,-1
 7 1 l 1,12,-1
1 1 m 1,16,-1
 1 4 l 1,17,-1
 4 4 l 1,18,-1
 4 1 l 1,19,-1
 1 1 l 1,16,-1
EndSplineSet
Validated: 5
EndChar

StartChar: percent
Encoding: 37 37 8
Width: 11
GlyphClass: 1
Flags: W
LayerCount: 2
Fore
SplineSet
1 9 m 1,0,-1
 1 12 l 1,1,-1
 4 12 l 1,2,-1
 4 9 l 1,3,-1
 1 9 l 1,0,-1
7 0 m 1,4,-1
 7 3 l 1,5,-1
 10 3 l 1,6,-1
 10 0 l 1,7,-1
 7 0 l 1,4,-1
4 4 m 1,8,-1
 4 8 l 1,9,-1
 7 8 l 1,10,-1
 7 4 l 1,11,-1
 4 4 l 1,8,-1
7 6 m 1,12,-1
 7 11 l 1,13,-1
 10 11 l 1,14,-1
 10 6 l 1,15,-1
 7 6 l 1,12,-1
1 1 m 1,16,-1
 1 6 l 1,17,-1
 4 6 l 1,18,-1
 4 1 l 1,19,-1
 1 1 l 1,16,-1
EndSplineSet
Validated: 5
EndChar

StartChar: ampersand
Encoding: 38 38 9
Width: 11
GlyphClass: 1
Flags: W
LayerCount: 2
Fore
SplineSet
1 7 m 1,0,-1
 1 11 l 1,1,-1
 4 11 l 1,2,-1
 4 7 l 1,3,-1
 1 7 l 1,0,-1
1 1 m 1,4,-1
 1 6 l 1,5,-1
 4 6 l 1,6,-1
 4 1 l 1,7,-1
 1 1 l 1,4,-1
4 10 m 1,8,-1
 4 12 l 1,9,-1
 7 12 l 1,10,-1
 7 10 l 1,11,-1
 4 10 l 1,8,-1
4 5 m 1,12,-1
 4 7 l 1,13,-1
 7 7 l 1,14,-1
 7 5 l 1,15,-1
 4 5 l 1,12,-1
4 0 m 1,16,-1
 4 2 l 1,17,-1
 7 2 l 1,18,-1
 7 0 l 1,19,-1
 4 0 l 1,16,-1
7 9 m 1,20,-1
 7 11 l 1,21,-1
 10 11 l 1,22,-1
 10 9 l 1,23,-1
 7 9 l 1,20,-1
7 0 m 1,24,-1
 7 5 l 1,25,-1
 10 5 l 1,26,-1
 10 0 l 1,27,-1
 7 0 l 1,24,-1
EndSplineSet
EndChar

StartChar: quotesingle
Encoding: 39 39 10
Width: 11
GlyphClass: 1
Flags: W
LayerCount: 2
Fore
SplineSet
4 8 m 1,0,-1
 4 12 l 1,1,-1
 7 12 l 1,2,-1
 7 8 l 1,3,-1
 4 8 l 1,0,-1
EndSplineSet
Validated: 1
EndChar

StartChar: parenleft
Encoding: 40 40 11
Width: 11
GlyphClass: 1
Flags: W
LayerCount: 2
Fore
SplineSet
7 9 m 1,0,-1
 7 13 l 1,1,-1
 10 13 l 1,2,-1
 10 9 l 1,3,-1
 7 9 l 1,0,-1
7 -1 m 1,4,-1
 7 3 l 1,5,-1
 10 3 l 1,6,-1
 10 -1 l 1,7,-1
 7 -1 l 1,4,-1
4 2 m 1,8,-1
 4 10 l 1,9,-1
 7 10 l 1,10,-1
 7 2 l 1,11,-1
 4 2 l 1,8,-1
EndSplineSet
Validated: 5
EndChar

StartChar: parenright
Encoding: 41 41 12
Width: 11
GlyphClass: 1
Flags: W
LayerCount: 2
Fore
SplineSet
1 9 m 1,0,-1
 1 13 l 1,1,-1
 4 13 l 1,2,-1
 4 9 l 1,3,-1
 1 9 l 1,0,-1
1 -1 m 1,4,-1
 1 3 l 1,5,-1
 4 3 l 1,6,-1
 4 -1 l 1,7,-1
 1 -1 l 1,4,-1
4 2 m 1,8,-1
 4 10 l 1,9,-1
 7 10 l 1,10,-1
 7 2 l 1,11,-1
 4 2 l 1,8,-1
EndSplineSet
Validated: 5
EndChar

StartChar: asterisk
Encoding: 42 42 13
Width: 11
GlyphClass: 1
Flags: W
LayerCount: 2
Fore
SplineSet
1 8 m 1,0,-1
 1 11 l 1,1,-1
 4 11 l 1,2,-1
 4 8 l 1,3,-1
 1 8 l 1,0,-1
1 5 m 1,4,-1
 1 7 l 1,5,-1
 4 7 l 1,6,-1
 4 5 l 1,7,-1
 1 5 l 1,4,-1
1 1 m 1,8,-1
 1 4 l 1,9,-1
 4 4 l 1,10,-1
 4 1 l 1,11,-1
 1 1 l 1,8,-1
4 3 m 1,12,-1
 4 9 l 1,13,-1
 7 9 l 1,14,-1
 7 3 l 1,15,-1
 4 3 l 1,12,-1
7 8 m 1,16,-1
 7 11 l 1,17,-1
 10 11 l 1,18,-1
 10 8 l 1,19,-1
 7 8 l 1,16,-1
7 5 m 1,20,-1
 7 7 l 1,21,-1
 10 7 l 1,22,-1
 10 5 l 1,23,-1
 7 5 l 1,20,-1
7 1 m 1,24,-1
 7 4 l 1,25,-1
 10 4 l 1,26,-1
 10 1 l 1,27,-1
 7 1 l 1,24,-1
EndSplineSet
Validated: 5
EndChar

StartChar: plus
Encoding: 43 43 14
Width: 11
GlyphClass: 1
Flags: W
LayerCount: 2
Fore
SplineSet
1 5 m 1,0,-1
 1 7 l 1,1,-1
 4 7 l 1,2,-1
 4 5 l 1,3,-1
 1 5 l 1,0,-1
4 3 m 1,4,-1
 4 9 l 1,5,-1
 7 9 l 1,6,-1
 7 3 l 1,7,-1
 4 3 l 1,4,-1
7 5 m 1,8,-1
 7 7 l 1,9,-1
 10 7 l 1,10,-1
 10 5 l 1,11,-1
 7 5 l 1,8,-1
EndSplineSet
Validated: 5
EndChar

StartChar: comma
Encoding: 44 44 15
Width: 11
GlyphClass: 1
Flags: W
LayerCount: 2
Fore
SplineSet
1 -2 m 1,0,-1
 1 0 l 1,1,-1
 4 0 l 1,2,-1
 4 -2 l 1,3,-1
 1 -2 l 1,0,-1
4 -1 m 1,4,-1
 4 3 l 1,5,-1
 7 3 l 1,6,-1
 7 -1 l 1,7,-1
 4 -1 l 1,4,-1
EndSplineSet
Validated: 5
EndChar

StartChar: hyphen
Encoding: 45 45 16
Width: 11
GlyphClass: 1
Flags: W
LayerCount: 2
Fore
SplineSet
1 5 m 1,0,-1
 1 7 l 1,1,-1
 10 7 l 1,2,-1
 10 5 l 1,3,-1
 1 5 l 1,0,-1
EndSplineSet
Validated: 1
EndChar

StartChar: period
Encoding: 46 46 17
Width: 11
GlyphClass: 1
Flags: W
LayerCount: 2
Fore
SplineSet
1 0 m 1,0,-1
 1 3 l 1,1,-1
 4 3 l 1,2,-1
 4 0 l 1,3,-1
 1 0 l 1,0,-1
EndSplineSet
Validated: 1
EndChar

StartChar: slash
Encoding: 47 47 18
Width: 11
GlyphClass: 1
Flags: W
LayerCount: 2
Fore
SplineSet
7 8 m 1,0,-1
 7 12 l 1,1,-1
 10 12 l 1,2,-1
 10 8 l 1,3,-1
 7 8 l 1,0,-1
4 3 m 1,4,-1
 4 9 l 1,5,-1
 7 9 l 1,6,-1
 7 3 l 1,7,-1
 4 3 l 1,4,-1
1 0 m 1,8,-1
 1 4 l 1,9,-1
 4 4 l 1,10,-1
 4 0 l 1,11,-1
 1 0 l 1,8,-1
EndSplineSet
Validated: 5
EndChar

StartChar: zero
Encoding: 48 48 19
Width: 11
GlyphClass: 1
Flags: W
LayerCount: 2
Fore
SplineSet
1 1 m 1,0,-1
 1 11 l 1,1,-1
 4 11 l 1,2,-1
 4 1 l 1,3,-1
 1 1 l 1,0,-1
4 8 m 1,4,-1
 4 12 l 1,5,-1
 7 12 l 1,6,-1
 7 8 l 1,7,-1
 4 8 l 1,4,-1
4 0 m 1,8,-1
 4 3 l 1,9,-1
 7 3 l 1,10,-1
 7 0 l 1,11,-1
 4 0 l 1,8,-1
7 1 m 1,12,-1
 7 11 l 1,13,-1
 10 11 l 1,14,-1
 10 1 l 1,15,-1
 7 1 l 1,12,-1
EndSplineSet
Validated: 5
EndChar

StartChar: one
Encoding: 49 49 20
Width: 11
GlyphClass: 1
Flags: W
LayerCount: 2
Fore
SplineSet
1 8 m 1,0,-1
 1 11 l 1,1,-1
 4 11 l 1,2,-1
 4 8 l 1,3,-1
 1 8 l 1,0,-1
4 0 m 1,4,-1
 4 12 l 1,5,-1
 7 12 l 1,6,-1
 7 0 l 1,7,-1
 4 0 l 1,4,-1
1 0 m 1,8,-1
 1 2 l 1,9,-1
 4 2 l 1,10,-1
 4 0 l 1,11,-1
 1 0 l 1,8,-1
7 0 m 1,12,-1
 7 2 l 1,13,-1
 10 2 l 1,14,-1
 10 0 l 1,15,-1
 7 0 l 1,12,-1
EndSplineSet
Validated: 5
EndChar

StartChar: two
Encoding: 50 50 21
Width: 11
GlyphClass: 1
Flags: W
LayerCount: 2
Fore
SplineSet
1 8 m 1,0,-1
 1 11 l 1,1,-1
 4 11 l 1,2,-1
 4 8 l 1,3,-1
 1 8 l 1,0,-1
4 9 m 1,4,-1
 4 12 l 1,5,-1
 7 12 l 1,6,-1
 7 9 l 1,7,-1
 4 9 l 1,4,-1
7 5 m 1,8,-1
 7 12 l 1,9,-1
 10 12 l 1,10,-1
 10 5 l 1,11,-1
 7 5 l 1,8,-1
4 4 m 1,12,-1
 4 7 l 1,13,-1
 7 7 l 1,14,-1
 7 4 l 1,15,-1
 4 4 l 1,12,-1
1 0 m 1,16,-1
 1 6 l 1,17,-1
 4 6 l 1,18,-1
 4 0 l 1,19,-1
 1 0 l 1,16,-1
4 0 m 1,20,-1
 4 2 l 1,21,-1
 7 2 l 1,22,-1
 7 0 l 1,23,-1
 4 0 l 1,20,-1
7 0 m 1,24,-1
 7 3 l 1,25,-1
 10 3 l 1,26,-1
 10 0 l 1,27,-1
 7 0 l 1,24,-1
EndSplineSet
Validated: 5
EndChar

StartChar: three
Encoding: 51 51 22
Width: 11
GlyphClass: 1
Flags: W
LayerCount: 2
Fore
SplineSet
1 8 m 1,0,-1
 1 11 l 1,1,-1
 4 11 l 1,2,-1
 4 8 l 1,3,-1
 1 8 l 1,0,-1
4 9 m 1,4,-1
 4 12 l 1,5,-1
 7 12 l 1,6,-1
 7 9 l 1,7,-1
 4 9 l 1,4,-1
7 0 m 1,8,-1
 7 12 l 1,9,-1
 10 12 l 1,10,-1
 10 0 l 1,11,-1
 7 0 l 1,8,-1
4 5 m 1,12,-1
 4 7 l 1,13,-1
 7 7 l 1,14,-1
 7 5 l 1,15,-1
 4 5 l 1,12,-1
1 4 m 1,16,-1
 1 7 l 1,17,-1
 4 7 l 1,18,-1
 4 4 l 1,19,-1
 1 4 l 1,16,-1
4 0 m 1,20,-1
 4 2 l 1,21,-1
 7 2 l 1,22,-1
 7 0 l 1,23,-1
 4 0 l 1,20,-1
1 0 m 1,24,-1
 1 3 l 1,25,-1
 4 3 l 1,26,-1
 4 0 l 1,27,-1
 1 0 l 1,24,-1
EndSplineSet
Validated: 5
EndChar

StartChar: four
Encoding: 52 52 23
Width: 11
GlyphClass: 1
Flags: W
LayerCount: 2
Fore
SplineSet
7 9 m 1,0,-1
 7 12 l 1,1,-1
 10 12 l 1,2,-1
 10 9 l 1,3,-1
 7 9 l 1,0,-1
4 8 m 1,4,-1
 4 11 l 1,5,-1
 7 11 l 1,6,-1
 7 8 l 1,7,-1
 4 8 l 1,4,-1
1 3 m 1,8,-1
 1 10 l 1,9,-1
 4 10 l 1,10,-1
 4 3 l 1,11,-1
 1 3 l 1,8,-1
4 0 m 1,12,-1
 4 6 l 1,13,-1
 7 6 l 1,14,-1
 7 0 l 1,15,-1
 4 0 l 1,12,-1
7 2 m 1,16,-1
 7 5 l 1,17,-1
 10 5 l 1,18,-1
 10 2 l 1,19,-1
 7 2 l 1,16,-1
EndSplineSet
Validated: 5
EndChar

StartChar: five
Encoding: 53 53 24
Width: 11
GlyphClass: 1
Flags: W
LayerCount: 2
Fore
SplineSet
4 9 m 1,0,-1
 4 12 l 1,1,-1
 10 12 l 1,2,-1
 10 9 l 1,3,-1
 4 9 l 1,0,-1
1 6 m 1,4,-1
 1 12 l 1,5,-1
 4 12 l 1,6,-1
 4 6 l 1,7,-1
 1 6 l 1,4,-1
4 5 m 1,8,-1
 4 8 l 1,9,-1
 7 8 l 1,10,-1
 7 5 l 1,11,-1
 4 5 l 1,8,-1
7 0 m 1,12,-1
 7 7 l 1,13,-1
 10 7 l 1,14,-1
 10 0 l 1,15,-1
 7 0 l 1,12,-1
4 0 m 1,16,-1
 4 2 l 1,17,-1
 7 2 l 1,18,-1
 7 0 l 1,19,-1
 4 0 l 1,16,-1
1 1 m 1,20,-1
 1 4 l 1,21,-1
 4 4 l 1,22,-1
 4 1 l 1,23,-1
 1 1 l 1,20,-1
EndSplineSet
Validated: 5
EndChar

StartChar: six
Encoding: 54 54 25
Width: 11
GlyphClass: 1
Flags: W
LayerCount: 2
Fore
SplineSet
7 8 m 1,0,-1
 7 11 l 1,1,-1
 10 11 l 1,2,-1
 10 8 l 1,3,-1
 7 8 l 1,0,-1
4 9 m 1,4,-1
 4 12 l 1,5,-1
 7 12 l 1,6,-1
 7 9 l 1,7,-1
 4 9 l 1,4,-1
1 0 m 1,8,-1
 1 12 l 1,9,-1
 4 12 l 1,10,-1
 4 0 l 1,11,-1
 1 0 l 1,8,-1
4 0 m 1,12,-1
 4 2 l 1,13,-1
 7 2 l 1,14,-1
 7 0 l 1,15,-1
 4 0 l 1,12,-1
7 0 m 1,16,-1
 7 6 l 1,17,-1
 10 6 l 1,18,-1
 10 0 l 1,19,-1
 7 0 l 1,16,-1
4 5 m 1,20,-1
 4 7 l 1,21,-1
 7 7 l 1,22,-1
 7 5 l 1,23,-1
 4 5 l 1,20,-1
EndSplineSet
Validated: 5
EndChar

StartChar: seven
Encoding: 55 55 26
Width: 11
GlyphClass: 1
Flags: W
LayerCount: 2
Fore
SplineSet
1 8 m 1,0,-1
 1 11 l 1,1,-1
 4 11 l 1,2,-1
 4 8 l 1,3,-1
 1 8 l 1,0,-1
4 9 m 1,4,-1
 4 12 l 1,5,-1
 7 12 l 1,6,-1
 7 9 l 1,7,-1
 4 9 l 1,4,-1
7 4 m 1,8,-1
 7 12 l 1,9,-1
 10 12 l 1,10,-1
 10 4 l 1,11,-1
 7 4 l 1,8,-1
4 0 m 1,12,-1
 4 5 l 1,13,-1
 7 5 l 1,14,-1
 7 0 l 1,15,-1
 4 0 l 1,12,-1
EndSplineSet
Validated: 5
EndChar

StartChar: eight
Encoding: 56 56 27
Width: 11
GlyphClass: 1
Flags: W
LayerCount: 2
Fore
SplineSet
1 0 m 1,0,-1
 1 11 l 1,1,-1
 4 11 l 1,2,-1
 4 0 l 1,3,-1
 1 0 l 1,0,-1
7 0 m 1,4,-1
 7 12 l 1,5,-1
 10 12 l 1,6,-1
 10 0 l 1,7,-1
 7 0 l 1,4,-1
4 9 m 1,8,-1
 4 12 l 1,9,-1
 7 12 l 1,10,-1
 7 9 l 1,11,-1
 4 9 l 1,8,-1
4 5 m 1,12,-1
 4 7 l 1,13,-1
 7 7 l 1,14,-1
 7 5 l 1,15,-1
 4 5 l 1,12,-1
4 0 m 1,16,-1
 4 2 l 1,17,-1
 7 2 l 1,18,-1
 7 0 l 1,19,-1
 4 0 l 1,16,-1
EndSplineSet
Validated: 5
EndChar

StartChar: nine
Encoding: 57 57 28
Width: 11
GlyphClass: 1
Flags: W
LayerCount: 2
Fore
SplineSet
4 9 m 1,0,-1
 4 12 l 1,1,-1
 7 12 l 1,2,-1
 7 9 l 1,3,-1
 4 9 l 1,0,-1
1 6 m 1,4,-1
 1 11 l 1,5,-1
 4 11 l 1,6,-1
 4 6 l 1,7,-1
 1 6 l 1,4,-1
4 5 m 1,8,-1
 4 7 l 1,9,-1
 7 7 l 1,10,-1
 7 5 l 1,11,-1
 4 5 l 1,8,-1
7 1 m 1,12,-1
 7 11 l 1,13,-1
 10 11 l 1,14,-1
 10 1 l 1,15,-1
 7 1 l 1,12,-1
4 0 m 1,16,-1
 4 2 l 1,17,-1
 7 2 l 1,18,-1
 7 0 l 1,19,-1
 4 0 l 1,16,-1
1 1 m 1,20,-1
 1 4 l 1,21,-1
 4 4 l 1,22,-1
 4 1 l 1,23,-1
 1 1 l 1,20,-1
EndSplineSet
Validated: 5
EndChar

StartChar: colon
Encoding: 58 58 29
Width: 11
GlyphClass: 1
Flags: W
LayerCount: 2
Fore
SplineSet
4 7 m 1,0,-1
 4 10 l 1,1,-1
 7 10 l 1,2,-1
 7 7 l 1,3,-1
 4 7 l 1,0,-1
4 2 m 1,4,-1
 4 5 l 1,5,-1
 7 5 l 1,6,-1
 7 2 l 1,7,-1
 4 2 l 1,4,-1
EndSplineSet
Validated: 1
EndChar

StartChar: semicolon
Encoding: 59 59 30
Width: 11
GlyphClass: 1
Flags: W
LayerCount: 2
Fore
SplineSet
4 7 m 1,0,-1
 4 10 l 1,1,-1
 7 10 l 1,2,-1
 7 7 l 1,3,-1
 4 7 l 1,0,-1
4 1 m 1,4,-1
 4 5 l 1,5,-1
 7 5 l 1,6,-1
 7 1 l 1,7,-1
 4 1 l 1,4,-1
1 0 m 1,8,-1
 1 2 l 1,9,-1
 4 2 l 1,10,-1
 4 0 l 1,11,-1
 1 0 l 1,8,-1
EndSplineSet
Validated: 5
EndChar

StartChar: less
Encoding: 60 60 31
Width: 11
GlyphClass: 1
Flags: W
LayerCount: 2
Fore
SplineSet
7 8 m 1,0,-1
 7 10 l 1,1,-1
 10 10 l 1,2,-1
 10 8 l 1,3,-1
 7 8 l 1,0,-1
4 7 m 1,4,-1
 4 9 l 1,5,-1
 7 9 l 1,6,-1
 7 7 l 1,7,-1
 4 7 l 1,4,-1
1 4 m 1,8,-1
 1 8 l 1,9,-1
 4 8 l 1,10,-1
 4 4 l 1,11,-1
 1 4 l 1,8,-1
4 3 m 1,12,-1
 4 5 l 1,13,-1
 7 5 l 1,14,-1
 7 3 l 1,15,-1
 4 3 l 1,12,-1
7 2 m 1,16,-1
 7 4 l 1,17,-1
 10 4 l 1,18,-1
 10 2 l 1,19,-1
 7 2 l 1,16,-1
EndSplineSet
Validated: 5
EndChar

StartChar: equal
Encoding: 61 61 32
Width: 11
GlyphClass: 1
Flags: W
LayerCount: 2
Fore
SplineSet
1 7 m 1,0,-1
 1 9 l 1,1,-1
 10 9 l 1,2,-1
 10 7 l 1,3,-1
 1 7 l 1,0,-1
1 3 m 1,4,-1
 1 5 l 1,5,-1
 10 5 l 1,6,-1
 10 3 l 1,7,-1
 1 3 l 1,4,-1
EndSplineSet
Validated: 1
EndChar

StartChar: greater
Encoding: 62 62 33
Width: 11
GlyphClass: 1
Flags: W
LayerCount: 2
Fore
SplineSet
1 8 m 1,0,-1
 1 10 l 1,1,-1
 4 10 l 1,2,-1
 4 8 l 1,3,-1
 1 8 l 1,0,-1
4 7 m 1,4,-1
 4 9 l 1,5,-1
 7 9 l 1,6,-1
 7 7 l 1,7,-1
 4 7 l 1,4,-1
7 4 m 1,8,-1
 7 8 l 1,9,-1
 10 8 l 1,10,-1
 10 4 l 1,11,-1
 7 4 l 1,8,-1
4 3 m 1,12,-1
 4 5 l 1,13,-1
 7 5 l 1,14,-1
 7 3 l 1,15,-1
 4 3 l 1,12,-1
1 2 m 1,16,-1
 1 4 l 1,17,-1
 4 4 l 1,18,-1
 4 2 l 1,19,-1
 1 2 l 1,16,-1
EndSplineSet
Validated: 5
EndChar

StartChar: question
Encoding: 63 63 34
Width: 11
GlyphClass: 1
Flags: W
LayerCount: 2
Fore
SplineSet
1 8 m 1,0,-1
 1 11 l 1,1,-1
 4 11 l 1,2,-1
 4 8 l 1,3,-1
 1 8 l 1,0,-1
4 9 m 1,4,-1
 4 12 l 1,5,-1
 7 12 l 1,6,-1
 7 9 l 1,7,-1
 4 9 l 1,4,-1
7 5 m 1,8,-1
 7 10 l 1,9,-1
 10 10 l 1,10,-1
 10 5 l 1,11,-1
 7 5 l 1,8,-1
4 3 m 1,12,-1
 4 7 l 1,13,-1
 7 7 l 1,14,-1
 7 3 l 1,15,-1
 4 3 l 1,12,-1
4 0 m 1,16,-1
 4 2 l 1,17,-1
 7 2 l 1,18,-1
 7 0 l 1,19,-1
 4 0 l 1,16,-1
EndSplineSet
Validated: 5
EndChar

StartChar: at
Encoding: 64 64 35
Width: 11
GlyphClass: 1
Flags: W
LayerCount: 2
Fore
SplineSet
1 1 m 1,0,-1
 1 11 l 1,1,-1
 4 11 l 1,2,-1
 4 1 l 1,3,-1
 1 1 l 1,0,-1
4 10 m 1,4,-1
 4 12 l 1,5,-1
 7 12 l 1,6,-1
 7 10 l 1,7,-1
 4 10 l 1,4,-1
4 7 m 1,8,-1
 4 9 l 1,9,-1
 7 9 l 1,10,-1
 7 7 l 1,11,-1
 4 7 l 1,8,-1
4 3 m 1,12,-1
 4 5 l 1,13,-1
 7 5 l 1,14,-1
 7 3 l 1,15,-1
 4 3 l 1,12,-1
4 0 m 1,16,-1
 4 2 l 1,17,-1
 7 2 l 1,18,-1
 7 0 l 1,19,-1
 4 0 l 1,16,-1
7 3 m 1,20,-1
 7 11 l 1,21,-1
 10 11 l 1,22,-1
 10 3 l 1,23,-1
 7 3 l 1,20,-1
7 1 m 1,24,-1
 7 2 l 1,25,-1
 10 2 l 1,26,-1
 10 1 l 1,27,-1
 7 1 l 1,24,-1
EndSplineSet
Validated: 5
EndChar

StartChar: A
Encoding: 65 65 36
Width: 11
GlyphClass: 1
Flags: W
LayerCount: 2
Fore
SplineSet
1 0 m 1,0,-1
 1 11 l 1,1,-1
 4 11 l 1,2,-1
 4 0 l 1,3,-1
 1 0 l 1,0,-1
4 9 m 1,4,-1
 4 12 l 1,5,-1
 7 12 l 1,6,-1
 7 9 l 1,7,-1
 4 9 l 1,4,-1
4 5 m 1,8,-1
 4 7 l 1,9,-1
 7 7 l 1,10,-1
 7 5 l 1,11,-1
 4 5 l 1,8,-1
7 0 m 1,12,-1
 7 11 l 1,13,-1
 10 11 l 1,14,-1
 10 0 l 1,15,-1
 7 0 l 1,12,-1
EndSplineSet
Validated: 5
EndChar

StartChar: B
Encoding: 66 66 37
Width: 11
GlyphClass: 1
Flags: W
LayerCount: 2
Fore
SplineSet
1 0 m 1,0,-1
 1 12 l 1,1,-1
 4 12 l 1,2,-1
 4 0 l 1,3,-1
 1 0 l 1,0,-1
4 9 m 1,4,-1
 4 12 l 1,5,-1
 7 12 l 1,6,-1
 7 9 l 1,7,-1
 4 9 l 1,4,-1
7 7 m 1,8,-1
 7 11 l 1,9,-1
 10 11 l 1,10,-1
 10 7 l 1,11,-1
 7 7 l 1,8,-1
4 4 m 1,12,-1
 4 7 l 1,13,-1
 7 7 l 1,14,-1
 7 4 l 1,15,-1
 4 4 l 1,12,-1
7 1 m 1,16,-1
 7 6 l 1,17,-1
 10 6 l 1,18,-1
 10 1 l 1,19,-1
 7 1 l 1,16,-1
4 0 m 1,20,-1
 4 2 l 1,21,-1
 7 2 l 1,22,-1
 7 0 l 1,23,-1
 4 0 l 1,20,-1
EndSplineSet
Validated: 5
EndChar

StartChar: C
Encoding: 67 67 38
Width: 11
GlyphClass: 1
Flags: W
LayerCount: 2
Fore
SplineSet
7 8 m 1,0,-1
 7 11 l 1,1,-1
 10 11 l 1,2,-1
 10 8 l 1,3,-1
 7 8 l 1,0,-1
4 9 m 1,4,-1
 4 12 l 1,5,-1
 7 12 l 1,6,-1
 7 9 l 1,7,-1
 4 9 l 1,4,-1
1 1 m 1,8,-1
 1 11 l 1,9,-1
 4 11 l 1,10,-1
 4 1 l 1,11,-1
 1 1 l 1,8,-1
4 0 m 1,12,-1
 4 2 l 1,13,-1
 7 2 l 1,14,-1
 7 0 l 1,15,-1
 4 0 l 1,12,-1
7 1 m 1,16,-1
 7 3 l 1,17,-1
 10 3 l 1,18,-1
 10 1 l 1,19,-1
 7 1 l 1,16,-1
EndSplineSet
Validated: 5
EndChar

StartChar: D
Encoding: 68 68 39
Width: 11
GlyphClass: 1
Flags: W
LayerCount: 2
Fore
SplineSet
1 0 m 1,0,-1
 1 12 l 1,1,-1
 4 12 l 1,2,-1
 4 0 l 1,3,-1
 1 0 l 1,0,-1
4 9 m 1,4,-1
 4 12 l 1,5,-1
 7 12 l 1,6,-1
 7 9 l 1,7,-1
 4 9 l 1,4,-1
7 1 m 1,8,-1
 7 10 l 1,9,-1
 10 10 l 1,10,-1
 10 1 l 1,11,-1
 7 1 l 1,8,-1
4 0 m 1,12,-1
 4 2 l 1,13,-1
 7 2 l 1,14,-1
 7 0 l 1,15,-1
 4 0 l 1,12,-1
EndSplineSet
Validated: 5
EndChar

StartChar: E
Encoding: 69 69 40
Width: 11
GlyphClass: 1
Flags: W
LayerCount: 2
Fore
SplineSet
1 1 m 1,0,-1
 1 11 l 1,1,-1
 4 11 l 1,2,-1
 4 1 l 1,3,-1
 1 1 l 1,0,-1
4 9 m 1,4,-1
 4 12 l 1,5,-1
 7 12 l 1,6,-1
 7 9 l 1,7,-1
 4 9 l 1,4,-1
4 5 m 1,8,-1
 4 6 l 1,9,-1
 7 6 l 1,10,-1
 7 5 l 1,11,-1
 4 5 l 1,8,-1
4 0 m 1,12,-1
 4 2 l 1,13,-1
 7 2 l 1,14,-1
 7 0 l 1,15,-1
 4 0 l 1,12,-1
7 8 m 1,16,-1
 7 11 l 1,17,-1
 10 11 l 1,18,-1
 10 8 l 1,19,-1
 7 8 l 1,16,-1
7 4 m 1,20,-1
 7 7 l 1,21,-1
 10 7 l 1,22,-1
 10 4 l 1,23,-1
 7 4 l 1,20,-1
7 1 m 1,24,-1
 7 3 l 1,25,-1
 10 3 l 1,26,-1
 10 1 l 1,27,-1
 7 1 l 1,24,-1
EndSplineSet
Validated: 5
EndChar

StartChar: F
Encoding: 70 70 41
Width: 11
GlyphClass: 1
Flags: W
LayerCount: 2
Fore
SplineSet
1 0 m 1,0,-1
 1 12 l 1,1,-1
 4 12 l 1,2,-1
 4 0 l 1,3,-1
 1 0 l 1,0,-1
4 9 m 1,4,-1
 4 12 l 1,5,-1
 7 12 l 1,6,-1
 7 9 l 1,7,-1
 4 9 l 1,4,-1
4 4 m 1,8,-1
 4 6 l 1,9,-1
 7 6 l 1,10,-1
 7 4 l 1,11,-1
 4 4 l 1,8,-1
7 8 m 1,12,-1
 7 11 l 1,13,-1
 10 11 l 1,14,-1
 10 8 l 1,15,-1
 7 8 l 1,12,-1
7 3 m 1,16,-1
 7 7 l 1,17,-1
 10 7 l 1,18,-1
 10 3 l 1,19,-1
 7 3 l 1,16,-1
EndSplineSet
Validated: 5
EndChar

StartChar: G
Encoding: 71 71 42
Width: 11
GlyphClass: 1
Flags: W
LayerCount: 2
Fore
SplineSet
7 8 m 1,0,-1
 7 11 l 1,1,-1
 10 11 l 1,2,-1
 10 8 l 1,3,-1
 7 8 l 1,0,-1
4 9 m 1,4,-1
 4 12 l 1,5,-1
 7 12 l 1,6,-1
 7 9 l 1,7,-1
 4 9 l 1,4,-1
1 1 m 1,8,-1
 1 10 l 1,9,-1
 4 10 l 1,10,-1
 4 1 l 1,11,-1
 1 1 l 1,8,-1
4 0 m 1,12,-1
 4 2 l 1,13,-1
 7 2 l 1,14,-1
 7 0 l 1,15,-1
 4 0 l 1,12,-1
7 0 m 1,16,-1
 7 5 l 1,17,-1
 10 5 l 1,18,-1
 10 0 l 1,19,-1
 7 0 l 1,16,-1
4 4 m 1,20,-1
 4 5 l 1,21,-1
 7 5 l 1,22,-1
 7 4 l 1,23,-1
 4 4 l 1,20,-1
EndSplineSet
Validated: 5
EndChar

StartChar: H
Encoding: 72 72 43
Width: 11
GlyphClass: 1
Flags: W
LayerCount: 2
Fore
SplineSet
1 0 m 1,0,-1
 1 12 l 1,1,-1
 4 12 l 1,2,-1
 4 0 l 1,3,-1
 1 0 l 1,0,-1
4 6 m 1,4,-1
 4 8 l 1,5,-1
 7 8 l 1,6,-1
 7 6 l 1,7,-1
 4 6 l 1,4,-1
7 0 m 1,8,-1
 7 12 l 1,9,-1
 10 12 l 1,10,-1
 10 0 l 1,11,-1
 7 0 l 1,8,-1
EndSplineSet
Validated: 5
EndChar

StartChar: I
Encoding: 73 73 44
Width: 11
GlyphClass: 1
Flags: W
LayerCount: 2
Fore
SplineSet
4 2 m 1,0,-1
 4 9 l 1,1,-1
 7 9 l 1,2,-1
 7 2 l 1,3,-1
 4 2 l 1,0,-1
1 9 m 1,4,-1
 1 12 l 1,5,-1
 10 12 l 1,6,-1
 10 9 l 1,7,-1
 1 9 l 1,4,-1
1 0 m 1,8,-1
 1 2 l 1,9,-1
 10 2 l 1,10,-1
 10 0 l 1,11,-1
 1 0 l 1,8,-1
EndSplineSet
Validated: 5
EndChar

StartChar: J
Encoding: 74 74 45
Width: 11
GlyphClass: 1
Flags: W
LayerCount: 2
Fore
SplineSet
4 9 m 1,0,-1
 4 12 l 1,1,-1
 7 12 l 1,2,-1
 7 9 l 1,3,-1
 4 9 l 1,0,-1
7 1 m 1,4,-1
 7 12 l 1,5,-1
 10 12 l 1,6,-1
 10 1 l 1,7,-1
 7 1 l 1,4,-1
4 0 m 1,8,-1
 4 2 l 1,9,-1
 7 2 l 1,10,-1
 7 0 l 1,11,-1
 4 0 l 1,8,-1
1 1 m 1,12,-1
 1 5 l 1,13,-1
 4 5 l 1,14,-1
 4 1 l 1,15,-1
 1 1 l 1,12,-1
EndSplineSet
Validated: 5
EndChar

StartChar: K
Encoding: 75 75 46
Width: 11
GlyphClass: 1
Flags: W
LayerCount: 2
Fore
SplineSet
1 0 m 1,0,-1
 1 12 l 1,1,-1
 4 12 l 1,2,-1
 4 0 l 1,3,-1
 1 0 l 1,0,-1
7 7 m 1,4,-1
 7 12 l 1,5,-1
 10 12 l 1,6,-1
 10 7 l 1,7,-1
 7 7 l 1,4,-1
4 4 m 1,8,-1
 4 9 l 1,9,-1
 7 9 l 1,10,-1
 7 4 l 1,11,-1
 4 4 l 1,8,-1
7 0 m 1,12,-1
 7 5 l 1,13,-1
 10 5 l 1,14,-1
 10 0 l 1,15,-1
 7 0 l 1,12,-1
EndSplineSet
Validated: 5
EndChar

StartChar: L
Encoding: 76 76 47
Width: 11
GlyphClass: 1
Flags: W
LayerCount: 2
Fore
SplineSet
1 0 m 1,0,-1
 1 12 l 1,1,-1
 4 12 l 1,2,-1
 4 0 l 1,3,-1
 1 0 l 1,0,-1
4 0 m 1,4,-1
 4 3 l 1,5,-1
 7 3 l 1,6,-1
 7 0 l 1,7,-1
 4 0 l 1,4,-1
7 1 m 1,8,-1
 7 4 l 1,9,-1
 10 4 l 1,10,-1
 10 1 l 1,11,-1
 7 1 l 1,8,-1
EndSplineSet
Validated: 5
EndChar

StartChar: M
Encoding: 77 77 48
Width: 11
GlyphClass: 1
Flags: W
LayerCount: 2
Fore
SplineSet
1 0 m 1,0,-1
 1 12 l 1,1,-1
 3 12 l 1,2,-1
 3 0 l 1,3,-1
 1 0 l 1,0,-1
3 8 m 1,4,-1
 3 12 l 1,5,-1
 4 12 l 1,6,-1
 4 8 l 1,7,-1
 3 8 l 1,4,-1
4 0 m 1,8,-1
 4 11 l 1,9,-1
 6 11 l 1,10,-1
 6 0 l 1,11,-1
 4 0 l 1,8,-1
6 8 m 1,12,-1
 6 12 l 1,13,-1
 7 12 l 1,14,-1
 7 8 l 1,15,-1
 6 8 l 1,12,-1
7 0 m 1,16,-1
 7 12 l 1,17,-1
 10 12 l 1,18,-1
 10 0 l 1,19,-1
 7 0 l 1,16,-1
EndSplineSet
Validated: 5
EndChar

StartChar: N
Encoding: 78 78 49
Width: 11
GlyphClass: 1
Flags: W
LayerCount: 2
Fore
SplineSet
1 0 m 1,0,-1
 1 12 l 1,1,-1
 3 12 l 1,2,-1
 3 0 l 1,3,-1
 1 0 l 1,0,-1
3 8 m 1,4,-1
 3 12 l 1,5,-1
 4 12 l 1,6,-1
 4 8 l 1,7,-1
 3 8 l 1,4,-1
4 0 m 1,8,-1
 4 12 l 1,9,-1
 6 12 l 1,10,-1
 6 0 l 1,11,-1
 4 0 l 1,8,-1
6 0 m 1,12,-1
 6 4 l 1,13,-1
 7 4 l 1,14,-1
 7 0 l 1,15,-1
 6 0 l 1,12,-1
7 0 m 1,16,-1
 7 12 l 1,17,-1
 10 12 l 1,18,-1
 10 0 l 1,19,-1
 7 0 l 1,16,-1
EndSplineSet
Validated: 5
EndChar

StartChar: O
Encoding: 79 79 50
Width: 11
GlyphClass: 1
Flags: W
LayerCount: 2
Fore
SplineSet
1 1 m 1,0,-1
 1 11 l 1,1,-1
 4 11 l 1,2,-1
 4 1 l 1,3,-1
 1 1 l 1,0,-1
4 9 m 1,4,-1
 4 12 l 1,5,-1
 7 12 l 1,6,-1
 7 9 l 1,7,-1
 4 9 l 1,4,-1
7 1 m 1,8,-1
 7 11 l 1,9,-1
 10 11 l 1,10,-1
 10 1 l 1,11,-1
 7 1 l 1,8,-1
4 0 m 1,12,-1
 4 2 l 1,13,-1
 7 2 l 1,14,-1
 7 0 l 1,15,-1
 4 0 l 1,12,-1
EndSplineSet
Validated: 5
EndChar

StartChar: P
Encoding: 80 80 51
Width: 11
GlyphClass: 1
Flags: W
LayerCount: 2
Fore
SplineSet
1 0 m 1,0,-1
 1 12 l 1,1,-1
 4 12 l 1,2,-1
 4 0 l 1,3,-1
 1 0 l 1,0,-1
4 9 m 1,4,-1
 4 12 l 1,5,-1
 7 12 l 1,6,-1
 7 9 l 1,7,-1
 4 9 l 1,4,-1
4 4 m 1,8,-1
 4 6 l 1,9,-1
 7 6 l 1,10,-1
 7 4 l 1,11,-1
 4 4 l 1,8,-1
7 5 m 1,12,-1
 7 11 l 1,13,-1
 10 11 l 1,14,-1
 10 5 l 1,15,-1
 7 5 l 1,12,-1
EndSplineSet
Validated: 5
EndChar

StartChar: Q
Encoding: 81 81 52
Width: 11
GlyphClass: 1
Flags: W
LayerCount: 2
Fore
SplineSet
1 2 m 1,0,-1
 1 11 l 1,1,-1
 4 11 l 1,2,-1
 4 2 l 1,3,-1
 1 2 l 1,0,-1
4 9 m 1,4,-1
 4 12 l 1,5,-1
 7 12 l 1,6,-1
 7 9 l 1,7,-1
 4 9 l 1,4,-1
4 0 m 1,8,-1
 4 3 l 1,9,-1
 7 3 l 1,10,-1
 7 0 l 1,11,-1
 4 0 l 1,8,-1
7 2 m 1,12,-1
 7 11 l 1,13,-1
 10 11 l 1,14,-1
 10 2 l 1,15,-1
 7 2 l 1,12,-1
7 0 m 1,16,-1
 7 1 l 1,17,-1
 10 1 l 1,18,-1
 10 0 l 1,19,-1
 7 0 l 1,16,-1
EndSplineSet
Validated: 5
EndChar

StartChar: R
Encoding: 82 82 53
Width: 11
GlyphClass: 1
Flags: W
LayerCount: 2
Fore
SplineSet
1 0 m 1,0,-1
 1 12 l 1,1,-1
 4 12 l 1,2,-1
 4 0 l 1,3,-1
 1 0 l 1,0,-1
4 9 m 1,4,-1
 4 12 l 1,5,-1
 7 12 l 1,6,-1
 7 9 l 1,7,-1
 4 9 l 1,4,-1
4 4 m 1,8,-1
 4 7 l 1,9,-1
 7 7 l 1,10,-1
 7 4 l 1,11,-1
 4 4 l 1,8,-1
7 6 m 1,12,-1
 7 11 l 1,13,-1
 10 11 l 1,14,-1
 10 6 l 1,15,-1
 7 6 l 1,12,-1
7 0 m 1,16,-1
 7 5 l 1,17,-1
 10 5 l 1,18,-1
 10 0 l 1,19,-1
 7 0 l 1,16,-1
EndSplineSet
Validated: 5
EndChar

StartChar: S
Encoding: 83 83 54
Width: 11
GlyphClass: 1
Flags: W
LayerCount: 2
Fore
SplineSet
7 8 m 1,0,-1
 7 11 l 1,1,-1
 10 11 l 1,2,-1
 10 8 l 1,3,-1
 7 8 l 1,0,-1
4 9 m 1,4,-1
 4 12 l 1,5,-1
 7 12 l 1,6,-1
 7 9 l 1,7,-1
 4 9 l 1,4,-1
1 6 m 1,8,-1
 1 11 l 1,9,-1
 4 11 l 1,10,-1
 4 6 l 1,11,-1
 1 6 l 1,8,-1
4 5 m 1,12,-1
 4 7 l 1,13,-1
 7 7 l 1,14,-1
 7 5 l 1,15,-1
 4 5 l 1,12,-1
7 1 m 1,16,-1
 7 6 l 1,17,-1
 10 6 l 1,18,-1
 10 1 l 1,19,-1
 7 1 l 1,16,-1
4 0 m 1,20,-1
 4 2 l 1,21,-1
 7 2 l 1,22,-1
 7 0 l 1,23,-1
 4 0 l 1,20,-1
1 1 m 1,24,-1
 1 4 l 1,25,-1
 4 4 l 1,26,-1
 4 1 l 1,27,-1
 1 1 l 1,24,-1
EndSplineSet
Validated: 5
EndChar

StartChar: T
Encoding: 84 84 55
Width: 11
GlyphClass: 1
Flags: W
LayerCount: 2
Fore
SplineSet
1 9 m 1,0,-1
 1 12 l 1,1,-1
 10 12 l 1,2,-1
 10 9 l 1,3,-1
 1 9 l 1,0,-1
4 0 m 1,4,-1
 4 9 l 1,5,-1
 7 9 l 1,6,-1
 7 0 l 1,7,-1
 4 0 l 1,4,-1
EndSplineSet
Validated: 5
EndChar

StartChar: U
Encoding: 85 85 56
Width: 11
GlyphClass: 1
Flags: W
LayerCount: 2
Fore
SplineSet
1 1 m 1,0,-1
 1 12 l 1,1,-1
 4 12 l 1,2,-1
 4 1 l 1,3,-1
 1 1 l 1,0,-1
4 0 m 1,4,-1
 4 2 l 1,5,-1
 7 2 l 1,6,-1
 7 0 l 1,7,-1
 4 0 l 1,4,-1
7 1 m 1,8,-1
 7 12 l 1,9,-1
 10 12 l 1,10,-1
 10 1 l 1,11,-1
 7 1 l 1,8,-1
EndSplineSet
Validated: 5
EndChar

StartChar: V
Encoding: 86 86 57
Width: 11
GlyphClass: 1
Flags: W
LayerCount: 2
Fore
SplineSet
1 2 m 1,0,-1
 1 12 l 1,1,-1
 4 12 l 1,2,-1
 4 2 l 1,3,-1
 1 2 l 1,0,-1
4 0 m 1,4,-1
 4 5 l 1,5,-1
 7 5 l 1,6,-1
 7 0 l 1,7,-1
 4 0 l 1,4,-1
7 2 m 1,8,-1
 7 12 l 1,9,-1
 10 12 l 1,10,-1
 10 2 l 1,11,-1
 7 2 l 1,8,-1
EndSplineSet
Validated: 5
EndChar

StartChar: W
Encoding: 87 87 58
Width: 11
GlyphClass: 1
Flags: W
LayerCount: 2
Fore
SplineSet
1 0 m 1,0,-1
 1 12 l 1,1,-1
 3 12 l 1,2,-1
 3 0 l 1,3,-1
 1 0 l 1,0,-1
3 0 m 1,4,-1
 3 4 l 1,5,-1
 4 4 l 1,6,-1
 4 0 l 1,7,-1
 3 0 l 1,4,-1
4 1 m 1,8,-1
 4 12 l 1,9,-1
 6 12 l 1,10,-1
 6 1 l 1,11,-1
 4 1 l 1,8,-1
6 0 m 1,12,-1
 6 4 l 1,13,-1
 7 4 l 1,14,-1
 7 0 l 1,15,-1
 6 0 l 1,12,-1
7 0 m 1,16,-1
 7 12 l 1,17,-1
 10 12 l 1,18,-1
 10 0 l 1,19,-1
 7 0 l 1,16,-1
EndSplineSet
Validated: 5
EndChar

StartChar: X
Encoding: 88 88 59
Width: 11
GlyphClass: 1
Flags: W
LayerCount: 2
Fore
SplineSet
1 8 m 1,0,-1
 1 12 l 1,1,-1
 4 12 l 1,2,-1
 4 8 l 1,3,-1
 1 8 l 1,0,-1
7 8 m 1,4,-1
 7 12 l 1,5,-1
 10 12 l 1,6,-1
 10 8 l 1,7,-1
 7 8 l 1,4,-1
4 3 m 1,8,-1
 4 9 l 1,9,-1
 7 9 l 1,10,-1
 7 3 l 1,11,-1
 4 3 l 1,8,-1
1 0 m 1,12,-1
 1 5 l 1,13,-1
 4 5 l 1,14,-1
 4 0 l 1,15,-1
 1 0 l 1,12,-1
7 0 m 1,16,-1
 7 5 l 1,17,-1
 10 5 l 1,18,-1
 10 0 l 1,19,-1
 7 0 l 1,16,-1
EndSplineSet
Validated: 5
EndChar

StartChar: Y
Encoding: 89 89 60
Width: 11
GlyphClass: 1
Flags: W
LayerCount: 2
Fore
SplineSet
1 6 m 1,0,-1
 1 12 l 1,1,-1
 4 12 l 1,2,-1
 4 6 l 1,3,-1
 1 6 l 1,0,-1
7 6 m 1,4,-1
 7 12 l 1,5,-1
 10 12 l 1,6,-1
 10 6 l 1,7,-1
 7 6 l 1,4,-1
4 0 m 1,8,-1
 4 9 l 1,9,-1
 7 9 l 1,10,-1
 7 0 l 1,11,-1
 4 0 l 1,8,-1
EndSplineSet
Validated: 5
EndChar

StartChar: Z
Encoding: 90 90 61
Width: 11
GlyphClass: 1
Flags: W
LayerCount: 2
Fore
SplineSet
1 9 m 1,0,-1
 1 12 l 1,1,-1
 7 12 l 1,2,-1
 7 9 l 1,3,-1
 1 9 l 1,0,-1
7 6 m 1,4,-1
 7 11 l 1,5,-1
 10 11 l 1,6,-1
 10 6 l 1,7,-1
 7 6 l 1,4,-1
4 3 m 1,8,-1
 4 7 l 1,9,-1
 7 7 l 1,10,-1
 7 3 l 1,11,-1
 4 3 l 1,8,-1
1 0 m 1,12,-1
 1 4 l 1,13,-1
 4 4 l 1,14,-1
 4 0 l 1,15,-1
 1 0 l 1,12,-1
4 0 m 1,16,-1
 4 2 l 1,17,-1
 10 2 l 1,18,-1
 10 0 l 1,19,-1
 4 0 l 1,16,-1
EndSplineSet
Validated: 5
EndChar

StartChar: bracketleft
Encoding: 91 91 62
Width: 11
GlyphClass: 1
Flags: W
LayerCount: 2
Fore
SplineSet
4 -1 m 1,0,-1
 4 13 l 1,1,-1
 7 13 l 1,2,-1
 7 -1 l 1,3,-1
 4 -1 l 1,0,-1
7 11 m 1,4,-1
 7 13 l 1,5,-1
 10 13 l 1,6,-1
 10 11 l 1,7,-1
 7 11 l 1,4,-1
7 -1 m 1,8,-1
 7 1 l 1,9,-1
 10 1 l 1,10,-1
 10 -1 l 1,11,-1
 7 -1 l 1,8,-1
EndSplineSet
Validated: 5
EndChar

StartChar: backslash
Encoding: 92 92 63
Width: 11
GlyphClass: 1
Flags: W
LayerCount: 2
Fore
SplineSet
1 8 m 1,0,-1
 1 12 l 1,1,-1
 4 12 l 1,2,-1
 4 8 l 1,3,-1
 1 8 l 1,0,-1
4 3 m 1,4,-1
 4 9 l 1,5,-1
 7 9 l 1,6,-1
 7 3 l 1,7,-1
 4 3 l 1,4,-1
7 0 m 1,8,-1
 7 4 l 1,9,-1
 10 4 l 1,10,-1
 10 0 l 1,11,-1
 7 0 l 1,8,-1
EndSplineSet
Validated: 5
EndChar

StartChar: bracketright
Encoding: 93 93 64
Width: 11
GlyphClass: 1
Flags: W
LayerCount: 2
Fore
SplineSet
4 -1 m 1,0,-1
 4 13 l 1,1,-1
 7 13 l 1,2,-1
 7 -1 l 1,3,-1
 4 -1 l 1,0,-1
1 11 m 1,4,-1
 1 13 l 1,5,-1
 4 13 l 1,6,-1
 4 11 l 1,7,-1
 1 11 l 1,4,-1
1 -1 m 1,8,-1
 1 1 l 1,9,-1
 4 1 l 1,10,-1
 4 -1 l 1,11,-1
 1 -1 l 1,8,-1
EndSplineSet
Validated: 5
EndChar

StartChar: asciicircum
Encoding: 94 94 65
Width: 11
GlyphClass: 1
Flags: W
LayerCount: 2
Fore
SplineSet
1 7 m 1,0,-1
 1 10 l 1,1,-1
 4 10 l 1,2,-1
 4 7 l 1,3,-1
 1 7 l 1,0,-1
4 9 m 1,4,-1
 4 12 l 1,5,-1
 7 12 l 1,6,-1
 7 9 l 1,7,-1
 4 9 l 1,4,-1
7 7 m 1,8,-1
 7 10 l 1,9,-1
 10 10 l 1,10,-1
 10 7 l 1,11,-1
 7 7 l 1,8,-1
EndSplineSet
Validated: 5
EndChar

StartChar: underscore
Encoding: 95 95 66
Width: 11
GlyphClass: 1
Flags: W
LayerCount: 2
Fore
SplineSet
1 -2 m 1,0,-1
 1 0 l 1,1,-1
 10 0 l 1,2,-1
 10 -2 l 1,3,-1
 1 -2 l 1,0,-1
EndSplineSet
Validated: 1
EndChar

StartChar: grave
Encoding: 96 96 67
Width: 11
GlyphClass: 1
Flags: W
LayerCount: 2
Fore
SplineSet
1 9 m 1,0,-1
 1 12 l 1,1,-1
 4 12 l 1,2,-1
 4 9 l 1,3,-1
 1 9 l 1,0,-1
4 7 m 1,4,-1
 4 10 l 1,5,-1
 7 10 l 1,6,-1
 7 7 l 1,7,-1
 4 7 l 1,4,-1
EndSplineSet
Validated: 5
EndChar

StartChar: a
Encoding: 97 97 68
Width: 11
GlyphClass: 1
Flags: W
LayerCount: 2
Fore
SplineSet
1 1 m 1,0,-1
 1 5 l 1,1,-1
 4 5 l 1,2,-1
 4 1 l 1,3,-1
 1 1 l 1,0,-1
4 4 m 1,4,-1
 4 6 l 1,5,-1
 7 6 l 1,6,-1
 7 4 l 1,7,-1
 4 4 l 1,4,-1
4 0 m 1,8,-1
 4 2 l 1,9,-1
 7 2 l 1,10,-1
 7 0 l 1,11,-1
 4 0 l 1,8,-1
7 0 m 1,12,-1
 7 5 l 1,13,-1
 10 5 l 1,14,-1
 10 0 l 1,15,-1
 7 0 l 1,12,-1
EndSplineSet
Validated: 5
EndChar

StartChar: b
Encoding: 98 98 69
Width: 11
GlyphClass: 1
Flags: W
LayerCount: 2
Fore
SplineSet
1 1 m 1,0,-1
 1 12 l 1,1,-1
 4 12 l 1,2,-1
 4 1 l 1,3,-1
 1 1 l 1,0,-1
4 4 m 1,4,-1
 4 6 l 1,5,-1
 7 6 l 1,6,-1
 7 4 l 1,7,-1
 4 4 l 1,4,-1
4 0 m 1,8,-1
 4 2 l 1,9,-1
 7 2 l 1,10,-1
 7 0 l 1,11,-1
 4 0 l 1,8,-1
7 1 m 1,12,-1
 7 5 l 1,13,-1
 10 5 l 1,14,-1
 10 1 l 1,15,-1
 7 1 l 1,12,-1
EndSplineSet
Validated: 5
EndChar

StartChar: c
Encoding: 99 99 70
Width: 11
GlyphClass: 1
Flags: W
LayerCount: 2
Fore
SplineSet
1 1 m 1,0,-1
 1 5 l 1,1,-1
 4 5 l 1,2,-1
 4 1 l 1,3,-1
 1 1 l 1,0,-1
4 4 m 1,4,-1
 4 6 l 1,5,-1
 7 6 l 1,6,-1
 7 4 l 1,7,-1
 4 4 l 1,4,-1
4 0 m 1,8,-1
 4 2 l 1,9,-1
 7 2 l 1,10,-1
 7 0 l 1,11,-1
 4 0 l 1,8,-1
7 3 m 1,12,-1
 7 5 l 1,13,-1
 10 5 l 1,14,-1
 10 3 l 1,15,-1
 7 3 l 1,12,-1
7 1 m 1,16,-1
 7 2 l 1,17,-1
 10 2 l 1,18,-1
 10 1 l 1,19,-1
 7 1 l 1,16,-1
EndSplineSet
Validated: 5
EndChar

StartChar: d
Encoding: 100 100 71
Width: 11
GlyphClass: 1
Flags: W
LayerCount: 2
Fore
SplineSet
1 1 m 1,0,-1
 1 5 l 1,1,-1
 4 5 l 1,2,-1
 4 1 l 1,3,-1
 1 1 l 1,0,-1
4 4 m 1,4,-1
 4 6 l 1,5,-1
 7 6 l 1,6,-1
 7 4 l 1,7,-1
 4 4 l 1,4,-1
4 0 m 1,8,-1
 4 2 l 1,9,-1
 7 2 l 1,10,-1
 7 0 l 1,11,-1
 4 0 l 1,8,-1
7 1 m 1,12,-1
 7 12 l 1,13,-1
 10 12 l 1,14,-1
 10 1 l 1,15,-1
 7 1 l 1,12,-1
EndSplineSet
Validated: 5
EndChar

StartChar: e
Encoding: 101 101 72
Width: 11
GlyphClass: 1
Flags: W
LayerCount: 2
Fore
SplineSet
1 1 m 1,0,-1
 1 6 l 1,1,-1
 4 6 l 1,2,-1
 4 1 l 1,3,-1
 1 1 l 1,0,-1
4 5 m 1,4,-1
 4 6 l 1,5,-1
 7 6 l 1,6,-1
 7 5 l 1,7,-1
 4 5 l 1,4,-1
4 3 m 1,8,-1
 4 4 l 1,9,-1
 7 4 l 1,10,-1
 7 3 l 1,11,-1
 4 3 l 1,8,-1
4 0 m 1,12,-1
 4 2 l 1,13,-1
 7 2 l 1,14,-1
 7 0 l 1,15,-1
 4 0 l 1,12,-1
7 3 m 1,16,-1
 7 6 l 1,17,-1
 10 6 l 1,18,-1
 10 3 l 1,19,-1
 7 3 l 1,16,-1
7 1 m 1,20,-1
 7 2 l 1,21,-1
 10 2 l 1,22,-1
 10 1 l 1,23,-1
 7 1 l 1,20,-1
EndSplineSet
Validated: 5
EndChar

StartChar: f
Encoding: 102 102 73
Width: 11
GlyphClass: 1
Flags: W
LayerCount: 2
Fore
SplineSet
7 10 m 1,0,-1
 7 12 l 1,1,-1
 10 12 l 1,2,-1
 10 10 l 1,3,-1
 7 10 l 1,0,-1
4 0 m 1,4,-1
 4 11 l 1,5,-1
 7 11 l 1,6,-1
 7 0 l 1,7,-1
 4 0 l 1,4,-1
1 4 m 1,8,-1
 1 6 l 1,9,-1
 4 6 l 1,10,-1
 4 4 l 1,11,-1
 1 4 l 1,8,-1
7 4 m 1,12,-1
 7 6 l 1,13,-1
 10 6 l 1,14,-1
 10 4 l 1,15,-1
 7 4 l 1,12,-1
EndSplineSet
Validated: 5
EndChar

StartChar: g
Encoding: 103 103 74
Width: 11
GlyphClass: 1
Flags: W
LayerCount: 2
Fore
SplineSet
1 1 m 1,0,-1
 1 5 l 1,1,-1
 4 5 l 1,2,-1
 4 1 l 1,3,-1
 1 1 l 1,0,-1
1 -2 m 1,4,-1
 1 0 l 1,5,-1
 4 0 l 1,6,-1
 4 -2 l 1,7,-1
 1 -2 l 1,4,-1
4 4 m 1,8,-1
 4 6 l 1,9,-1
 7 6 l 1,10,-1
 7 4 l 1,11,-1
 4 4 l 1,8,-1
4 0 m 1,12,-1
 4 2 l 1,13,-1
 7 2 l 1,14,-1
 7 0 l 1,15,-1
 4 0 l 1,12,-1
4 -3 m 1,16,-1
 4 -1 l 1,17,-1
 7 -1 l 1,18,-1
 7 -3 l 1,19,-1
 4 -3 l 1,16,-1
7 -2 m 1,20,-1
 7 5 l 1,21,-1
 10 5 l 1,22,-1
 10 -2 l 1,23,-1
 7 -2 l 1,20,-1
EndSplineSet
Validated: 5
EndChar

StartChar: h
Encoding: 104 104 75
Width: 11
GlyphClass: 1
Flags: W
LayerCount: 2
Fore
SplineSet
1 0 m 1,0,-1
 1 12 l 1,1,-1
 4 12 l 1,2,-1
 4 0 l 1,3,-1
 1 0 l 1,0,-1
4 4 m 1,4,-1
 4 6 l 1,5,-1
 7 6 l 1,6,-1
 7 4 l 1,7,-1
 4 4 l 1,4,-1
7 0 m 1,8,-1
 7 5 l 1,9,-1
 10 5 l 1,10,-1
 10 0 l 1,11,-1
 7 0 l 1,8,-1
EndSplineSet
Validated: 5
EndChar

StartChar: i
Encoding: 105 105 76
Width: 11
GlyphClass: 1
Flags: W
LayerCount: 2
Fore
SplineSet
4 5 m 1,0,-1
 4 7 l 1,1,-1
 7 7 l 1,2,-1
 7 5 l 1,3,-1
 4 5 l 1,0,-1
4 0 m 1,4,-1
 4 4 l 1,5,-1
 7 4 l 1,6,-1
 7 0 l 1,7,-1
 4 0 l 1,4,-1
EndSplineSet
Validated: 1
EndChar

StartChar: j
Encoding: 106 106 77
Width: 11
GlyphClass: 1
Flags: W
LayerCount: 2
Fore
SplineSet
7 5 m 1,0,-1
 7 7 l 1,1,-1
 10 7 l 1,2,-1
 10 5 l 1,3,-1
 7 5 l 1,0,-1
7 -2 m 1,4,-1
 7 4 l 1,5,-1
 10 4 l 1,6,-1
 10 -2 l 1,7,-1
 7 -2 l 1,4,-1
4 -3 m 1,8,-1
 4 -1 l 1,9,-1
 7 -1 l 1,10,-1
 7 -3 l 1,11,-1
 4 -3 l 1,8,-1
1 -2 m 1,12,-1
 1 0 l 1,13,-1
 4 0 l 1,14,-1
 4 -2 l 1,15,-1
 1 -2 l 1,12,-1
EndSplineSet
Validated: 5
EndChar

StartChar: k
Encoding: 107 107 78
Width: 11
GlyphClass: 1
Flags: W
LayerCount: 2
Fore
SplineSet
1 0 m 1,0,-1
 1 12 l 1,1,-1
 4 12 l 1,2,-1
 4 0 l 1,3,-1
 1 0 l 1,0,-1
4 1 m 1,4,-1
 4 5 l 1,5,-1
 7 5 l 1,6,-1
 7 1 l 1,7,-1
 4 1 l 1,4,-1
7 4 m 1,8,-1
 7 6 l 1,9,-1
 10 6 l 1,10,-1
 10 4 l 1,11,-1
 7 4 l 1,8,-1
7 0 m 1,12,-1
 7 2 l 1,13,-1
 10 2 l 1,14,-1
 10 0 l 1,15,-1
 7 0 l 1,12,-1
EndSplineSet
Validated: 5
EndChar

StartChar: l
Encoding: 108 108 79
Width: 11
GlyphClass: 1
Flags: W
LayerCount: 2
Fore
SplineSet
4 1 m 1,0,-1
 4 12 l 1,1,-1
 7 12 l 1,2,-1
 7 1 l 1,3,-1
 4 1 l 1,0,-1
7 0 m 1,4,-1
 7 2 l 1,5,-1
 10 2 l 1,6,-1
 10 0 l 1,7,-1
 7 0 l 1,4,-1
EndSplineSet
Validated: 5
EndChar

StartChar: m
Encoding: 109 109 80
Width: 11
GlyphClass: 1
Flags: W
LayerCount: 2
Fore
SplineSet
1 0 m 1,0,-1
 1 6 l 1,1,-1
 3 6 l 1,2,-1
 3 0 l 1,3,-1
 1 0 l 1,0,-1
3 4 m 1,4,-1
 3 6 l 1,5,-1
 4 6 l 1,6,-1
 4 4 l 1,7,-1
 3 4 l 1,4,-1
4 0 m 1,8,-1
 4 6 l 1,9,-1
 6 6 l 1,10,-1
 6 0 l 1,11,-1
 4 0 l 1,8,-1
6 4 m 1,12,-1
 6 6 l 1,13,-1
 7 6 l 1,14,-1
 7 4 l 1,15,-1
 6 4 l 1,12,-1
7 0 m 1,16,-1
 7 5 l 1,17,-1
 10 5 l 1,18,-1
 10 0 l 1,19,-1
 7 0 l 1,16,-1
EndSplineSet
Validated: 5
EndChar

StartChar: n
Encoding: 110 110 81
Width: 11
GlyphClass: 1
Flags: W
LayerCount: 2
Fore
SplineSet
1 0 m 1,0,-1
 1 6 l 1,1,-1
 4 6 l 1,2,-1
 4 0 l 1,3,-1
 1 0 l 1,0,-1
4 4 m 1,4,-1
 4 6 l 1,5,-1
 7 6 l 1,6,-1
 7 4 l 1,7,-1
 4 4 l 1,4,-1
7 0 m 1,8,-1
 7 5 l 1,9,-1
 10 5 l 1,10,-1
 10 0 l 1,11,-1
 7 0 l 1,8,-1
EndSplineSet
Validated: 5
EndChar

StartChar: o
Encoding: 111 111 82
Width: 11
GlyphClass: 1
Flags: W
LayerCount: 2
Fore
SplineSet
1 1 m 1,0,-1
 1 5 l 1,1,-1
 4 5 l 1,2,-1
 4 1 l 1,3,-1
 1 1 l 1,0,-1
4 4 m 1,4,-1
 4 6 l 1,5,-1
 7 6 l 1,6,-1
 7 4 l 1,7,-1
 4 4 l 1,4,-1
4 0 m 1,8,-1
 4 2 l 1,9,-1
 7 2 l 1,10,-1
 7 0 l 1,11,-1
 4 0 l 1,8,-1
7 1 m 1,12,-1
 7 5 l 1,13,-1
 10 5 l 1,14,-1
 10 1 l 1,15,-1
 7 1 l 1,12,-1
EndSplineSet
Validated: 5
EndChar

StartChar: p
Encoding: 112 112 83
Width: 11
GlyphClass: 1
Flags: W
LayerCount: 2
Fore
SplineSet
1 -3 m 1,0,-1
 1 6 l 1,1,-1
 4 6 l 1,2,-1
 4 -3 l 1,3,-1
 1 -3 l 1,0,-1
4 4 m 1,4,-1
 4 6 l 1,5,-1
 7 6 l 1,6,-1
 7 4 l 1,7,-1
 4 4 l 1,4,-1
4 0 m 1,8,-1
 4 2 l 1,9,-1
 7 2 l 1,10,-1
 7 0 l 1,11,-1
 4 0 l 1,8,-1
7 1 m 1,12,-1
 7 5 l 1,13,-1
 10 5 l 1,14,-1
 10 1 l 1,15,-1
 7 1 l 1,12,-1
EndSplineSet
Validated: 5
EndChar

StartChar: q
Encoding: 113 113 84
Width: 11
GlyphClass: 1
Flags: W
LayerCount: 2
Fore
SplineSet
1 1 m 1,0,-1
 1 5 l 1,1,-1
 4 5 l 1,2,-1
 4 1 l 1,3,-1
 1 1 l 1,0,-1
4 4 m 1,4,-1
 4 6 l 1,5,-1
 7 6 l 1,6,-1
 7 4 l 1,7,-1
 4 4 l 1,4,-1
4 0 m 1,8,-1
 4 2 l 1,9,-1
 7 2 l 1,10,-1
 7 0 l 1,11,-1
 4 0 l 1,8,-1
7 -3 m 1,12,-1
 7 6 l 1,13,-1
 10 6 l 1,14,-1
 10 -3 l 1,15,-1
 7 -3 l 1,12,-1
EndSplineSet
Validated: 5
EndChar

StartChar: r
Encoding: 114 114 85
Width: 11
GlyphClass: 1
Flags: W
LayerCount: 2
Fore
SplineSet
1 0 m 1,0,-1
 1 6 l 1,1,-1
 4 6 l 1,2,-1
 4 0 l 1,3,-1
 1 0 l 1,0,-1
4 4 m 1,4,-1
 4 6 l 1,5,-1
 7 6 l 1,6,-1
 7 4 l 1,7,-1
 4 4 l 1,4,-1
7 3 m 1,8,-1
 7 5 l 1,9,-1
 10 5 l 1,10,-1
 10 3 l 1,11,-1
 7 3 l 1,8,-1
EndSplineSet
Validated: 5
EndChar

StartChar: s
Encoding: 115 115 86
Width: 11
GlyphClass: 1
Flags: W
LayerCount: 2
Fore
SplineSet
4 5 m 1,0,-1
 4 6 l 1,1,-1
 10 6 l 1,2,-1
 10 5 l 1,3,-1
 4 5 l 1,0,-1
1 3 m 1,4,-1
 1 6 l 1,5,-1
 4 6 l 1,6,-1
 4 3 l 1,7,-1
 1 3 l 1,4,-1
4 3 m 1,8,-1
 4 4 l 1,9,-1
 7 4 l 1,10,-1
 7 3 l 1,11,-1
 4 3 l 1,8,-1
7 1 m 1,12,-1
 7 4 l 1,13,-1
 10 4 l 1,14,-1
 10 1 l 1,15,-1
 7 1 l 1,12,-1
4 0 m 1,16,-1
 4 2 l 1,17,-1
 7 2 l 1,18,-1
 7 0 l 1,19,-1
 4 0 l 1,16,-1
1 1 m 1,20,-1
 1 2 l 1,21,-1
 4 2 l 1,22,-1
 4 1 l 1,23,-1
 1 1 l 1,20,-1
EndSplineSet
Validated: 5
EndChar

StartChar: t
Encoding: 116 116 87
Width: 11
GlyphClass: 1
Flags: W
LayerCount: 2
Fore
SplineSet
1 4 m 1,0,-1
 1 6 l 1,1,-1
 4 6 l 1,2,-1
 4 4 l 1,3,-1
 1 4 l 1,0,-1
4 1 m 1,4,-1
 4 8 l 1,5,-1
 7 8 l 1,6,-1
 7 1 l 1,7,-1
 4 1 l 1,4,-1
7 4 m 1,8,-1
 7 6 l 1,9,-1
 10 6 l 1,10,-1
 10 4 l 1,11,-1
 7 4 l 1,8,-1
7 0 m 1,12,-1
 7 2 l 1,13,-1
 10 2 l 1,14,-1
 10 0 l 1,15,-1
 7 0 l 1,12,-1
EndSplineSet
Validated: 5
EndChar

StartChar: u
Encoding: 117 117 88
Width: 11
GlyphClass: 1
Flags: W
LayerCount: 2
Fore
SplineSet
1 1 m 1,0,-1
 1 6 l 1,1,-1
 4 6 l 1,2,-1
 4 1 l 1,3,-1
 1 1 l 1,0,-1
4 0 m 1,4,-1
 4 2 l 1,5,-1
 7 2 l 1,6,-1
 7 0 l 1,7,-1
 4 0 l 1,4,-1
7 0 m 1,8,-1
 7 6 l 1,9,-1
 10 6 l 1,10,-1
 10 0 l 1,11,-1
 7 0 l 1,8,-1
EndSplineSet
Validated: 5
EndChar

StartChar: v
Encoding: 118 118 89
Width: 11
GlyphClass: 1
Flags: W
LayerCount: 2
Fore
SplineSet
1 1 m 1,0,-1
 1 6 l 1,1,-1
 4 6 l 1,2,-1
 4 1 l 1,3,-1
 1 1 l 1,0,-1
4 0 m 1,4,-1
 4 2 l 1,5,-1
 7 2 l 1,6,-1
 7 0 l 1,7,-1
 4 0 l 1,4,-1
7 1 m 1,8,-1
 7 6 l 1,9,-1
 10 6 l 1,10,-1
 10 1 l 1,11,-1
 7 1 l 1,8,-1
EndSplineSet
Validated: 5
EndChar

StartChar: w
Encoding: 119 119 90
Width: 11
GlyphClass: 1
Flags: W
LayerCount: 2
Fore
SplineSet
1 0 m 1,0,-1
 1 6 l 1,1,-1
 3 6 l 1,2,-1
 3 0 l 1,3,-1
 1 0 l 1,0,-1
3 0 m 1,4,-1
 3 2 l 1,5,-1
 4 2 l 1,6,-1
 4 0 l 1,7,-1
 3 0 l 1,4,-1
4 0 m 1,8,-1
 4 6 l 1,9,-1
 6 6 l 1,10,-1
 6 0 l 1,11,-1
 4 0 l 1,8,-1
6 0 m 1,12,-1
 6 2 l 1,13,-1
 7 2 l 1,14,-1
 7 0 l 1,15,-1
 6 0 l 1,12,-1
7 1 m 1,16,-1
 7 6 l 1,17,-1
 10 6 l 1,18,-1
 10 1 l 1,19,-1
 7 1 l 1,16,-1
EndSplineSet
Validated: 5
EndChar

StartChar: x
Encoding: 120 120 91
Width: 11
GlyphClass: 1
Flags: W
LayerCount: 2
Fore
SplineSet
1 4 m 1,0,-1
 1 6 l 1,1,-1
 4 6 l 1,2,-1
 4 4 l 1,3,-1
 1 4 l 1,0,-1
7 4 m 1,4,-1
 7 6 l 1,5,-1
 10 6 l 1,6,-1
 10 4 l 1,7,-1
 7 4 l 1,4,-1
4 1 m 1,8,-1
 4 5 l 1,9,-1
 7 5 l 1,10,-1
 7 1 l 1,11,-1
 4 1 l 1,8,-1
1 0 m 1,12,-1
 1 2 l 1,13,-1
 4 2 l 1,14,-1
 4 0 l 1,15,-1
 1 0 l 1,12,-1
7 0 m 1,16,-1
 7 2 l 1,17,-1
 10 2 l 1,18,-1
 10 0 l 1,19,-1
 7 0 l 1,16,-1
EndSplineSet
Validated: 5
EndChar

StartChar: y
Encoding: 121 121 92
Width: 11
GlyphClass: 1
Flags: W
LayerCount: 2
Fore
SplineSet
1 1 m 1,0,-1
 1 6 l 1,1,-1
 4 6 l 1,2,-1
 4 1 l 1,3,-1
 1 1 l 1,0,-1
4 0 m 1,4,-1
 4 2 l 1,5,-1
 7 2 l 1,6,-1
 7 0 l 1,7,-1
 4 0 l 1,4,-1
7 -2 m 1,8,-1
 7 6 l 1,9,-1
 10 6 l 1,10,-1
 10 -2 l 1,11,-1
 7 -2 l 1,8,-1
4 -3 m 1,12,-1
 4 -1 l 1,13,-1
 7 -1 l 1,14,-1
 7 -3 l 1,15,-1
 4 -3 l 1,12,-1
1 -2 m 1,16,-1
 1 0 l 1,17,-1
 4 0 l 1,18,-1
 4 -2 l 1,19,-1
 1 -2 l 1,16,-1
EndSplineSet
Validated: 5
EndChar

StartChar: z
Encoding: 122 122 93
Width: 11
GlyphClass: 1
Flags: W
LayerCount: 2
Fore
SplineSet
1 5 m 1,0,-1
 1 6 l 1,1,-1
 7 6 l 1,2,-1
 7 5 l 1,3,-1
 1 5 l 1,0,-1
7 4 m 1,4,-1
 7 6 l 1,5,-1
 10 6 l 1,6,-1
 10 4 l 1,7,-1
 7 4 l 1,4,-1
4 2 m 1,8,-1
 4 4 l 1,9,-1
 7 4 l 1,10,-1
 7 2 l 1,11,-1
 4 2 l 1,8,-1
1 0 m 1,12,-1
 1 2 l 1,13,-1
 4 2 l 1,14,-1
 4 0 l 1,15,-1
 1 0 l 1,12,-1
4 0 m 1,16,-1
 4 1 l 1,17,-1
 7 1 l 1,18,-1
 7 0 l 1,19,-1
 4 0 l 1,16,-1
7 0 m 1,20,-1
 7 2 l 1,21,-1
 10 2 l 1,22,-1
 10 0 l 1,23,-1
 7 0 l 1,20,-1
EndSplineSet
Validated: 5
EndChar

StartChar: braceleft
Encoding: 123 123 94
Width: 11
GlyphClass: 1
Flags: W
LayerCount: 2
Fore
SplineSet
1 5 m 1,0,-1
 1 7 l 1,1,-1
 4 7 l 1,2,-1
 4 5 l 1,3,-1
 1 5 l 1,0,-1
4 0 m 1,4,-1
 4 12 l 1,5,-1
 7 12 l 1,6,-1
 7 0 l 1,7,-1
 4 0 l 1,4,-1
7 11 m 1,8,-1
 7 13 l 1,9,-1
 10 13 l 1,10,-1
 10 11 l 1,11,-1
 7 11 l 1,8,-1
7 -1 m 1,12,-1
 7 1 l 1,13,-1
 10 1 l 1,14,-1
 10 -1 l 1,15,-1
 7 -1 l 1,12,-1
EndSplineSet
Validated: 5
EndChar

StartChar: bar
Encoding: 124 124 95
Width: 11
GlyphClass: 1
Flags: W
LayerCount: 2
Fore
SplineSet
4 -1 m 1,0,-1
 4 13 l 1,1,-1
 7 13 l 1,2,-1
 7 -1 l 1,3,-1
 4 -1 l 1,0,-1
EndSplineSet
Validated: 1
EndChar

StartChar: braceright
Encoding: 125 125 96
Width: 11
GlyphClass: 1
Flags: W
LayerCount: 2
Fore
SplineSet
1 11 m 1,0,-1
 1 13 l 1,1,-1
 4 13 l 1,2,-1
 4 11 l 1,3,-1
 1 11 l 1,0,-1
1 -1 m 1,4,-1
 1 1 l 1,5,-1
 4 1 l 1,6,-1
 4 -1 l 1,7,-1
 1 -1 l 1,4,-1
4 0 m 1,8,-1
 4 12 l 1,9,-1
 7 12 l 1,10,-1
 7 0 l 1,11,-1
 4 0 l 1,8,-1
7 5 m 1,12,-1
 7 7 l 1,13,-1
 10 7 l 1,14,-1
 10 5 l 1,15,-1
 7 5 l 1,12,-1
EndSplineSet
Validated: 5
EndChar

StartChar: asciitilde
Encoding: 126 126 97
Width: 11
GlyphClass: 1
Flags: W
LayerCount: 2
Fore
SplineSet
1 6 m 1,0,-1
 1 8 l 1,1,-1
 4 8 l 1,2,-1
 4 6 l 1,3,-1
 1 6 l 1,0,-1
4 5 m 1,4,-1
 4 7 l 1,5,-1
 7 7 l 1,6,-1
 7 5 l 1,7,-1
 4 5 l 1,4,-1
7 6 m 1,8,-1
 7 8 l 1,9,-1
 10 8 l 1,10,-1
 10 6 l 1,11,-1
 7 6 l 1,8,-1
EndSplineSet
Validated: 5
EndChar
